<?xml version="1.0" encoding="UTF-8"?>
<svg version="1.1" xmlns="http://www.w3.org/2000/svg" width="260" height="194">
<path d="M0 0 C8.25 0 16.5 0 25 0 C24.34106077 5.27151386 23.72370047 9.52898754 22.30102539 14.50317383 C21.77843391 16.34674217 21.77843391 16.34674217 21.24528503 18.22755432 C20.86285908 19.55408036 20.48031279 20.88057171 20.09765625 22.20703125 C19.69974802 23.60259114 19.30236449 24.99830073 18.9054718 26.39414978 C17.849133 30.10379643 16.7856532 33.81135932 15.7206955 37.51853943 C14.61966247 41.35588923 13.5252325 45.19512106 12.43017578 49.03417969 C10.71785525 55.03437135 9.00197152 61.03353047 7.28271484 67.03173828 C5.45940437 73.39303722 3.64238565 79.75609566 1.83203125 86.12109375 C-2.3571339 100.84231943 -6.5984424 115.54812676 -10.87597656 130.24389648 C-13.29759719 138.56644641 -15.69720418 146.89486878 -18.06152344 155.23388672 C-19.2202311 159.31201498 -20.39848982 163.3839387 -21.6015625 167.44921875 C-21.96628662 168.68224731 -21.96628662 168.68224731 -22.33837891 169.94018555 C-23 172 -23 172 -24 174 C-32.25 174 -40.5 174 -49 174 C-47.87514431 165.0011545 -47.87514431 165.0011545 -46.65576172 160.8840332 C-46.38331131 159.95241364 -46.1108609 159.02079407 -45.83015442 158.0609436 C-45.38442329 156.57091324 -45.38442329 156.57091324 -44.9296875 155.05078125 C-44.61702438 153.9863681 -44.30436127 152.92195496 -43.98222351 151.82528687 C-43.30602462 149.52496087 -42.62713258 147.22542518 -41.9458313 144.92660522 C-40.10316253 138.70751279 -38.28098145 132.48241547 -36.45703125 126.2578125 C-36.26971624 125.61942884 -36.08240124 124.98104519 -35.88941002 124.32331657 C-32.02076427 111.1373271 -28.27977132 97.9168231 -24.5625 84.6875 C-16.60284521 56.39110602 -8.31277969 28.19426256 0 0 Z " fill="#020102" transform="translate(142,12)"/>
<path d="M0 0 C-1.16016681 3.17060668 -2.28780779 5.66422973 -4.53125 8.19140625 C-5.01207031 8.74376953 -5.49289063 9.29613281 -5.98828125 9.86523438 C-6.48714844 10.42533203 -6.98601562 10.98542969 -7.5 11.5625 C-11.8577921 16.36879126 -11.8577921 16.36879126 -15 22 C-15.66 22 -16.32 22 -17 22 C-17.2784375 22.99 -17.2784375 22.99 -17.5625 24 C-19.26748203 27.55822336 -21.49909949 30.04306905 -24.1484375 32.9375 C-26.19823885 35.22082302 -28.09487271 37.59486804 -30 40 C-31.41451871 41.73092421 -32.83127403 43.46002252 -34.25 45.1875 C-35.02472656 46.14398438 -35.79945312 47.10046875 -36.59765625 48.0859375 C-38.17305076 49.99690384 -39.7844396 51.87887454 -41.43359375 53.7265625 C-42.17738281 54.57992187 -42.92117187 55.43328125 -43.6875 56.3125 C-44.37199219 57.07175781 -45.05648437 57.83101562 -45.76171875 58.61328125 C-47.3648917 61.06540713 -47.3648917 61.06540713 -46.20703125 64.29296875 C-45.80871094 65.18628906 -45.41039063 66.07960938 -45 67 C-44.34 67 -43.68 67 -43 67 C-42.34 68.65 -41.68 70.3 -41 72 C-40.34 72 -39.68 72 -39 72 C-38.5978125 73.2065625 -38.5978125 73.2065625 -38.1875 74.4375 C-37.5996875 75.7059375 -37.5996875 75.7059375 -37 77 C-36.01 77.33 -35.02 77.66 -34 78 C-32.96210419 79.64333504 -31.96432076 81.31243867 -31 83 C-30.57976563 83.41507812 -30.15953125 83.83015625 -29.7265625 84.2578125 C-27.19880503 86.80844561 -25.07032447 89.6653087 -22.875 92.5 C-19.40035166 96.95612555 -15.89951468 101.38319952 -12.3125 105.75 C-11.59835938 106.62140625 -10.88421875 107.4928125 -10.1484375 108.390625 C-8.66021583 110.19813786 -7.16493045 111.99984916 -5.6640625 113.796875 C-4.92929688 114.68890625 -4.19453125 115.5809375 -3.4375 116.5 C-2.77621094 117.2940625 -2.11492187 118.088125 -1.43359375 118.90625 C0 121 0 121 0 124 C-20.74071635 126.52137288 -20.74071635 126.52137288 -27.29882812 122.63916016 C-31.22853656 119.03894266 -34.000818 114.66503605 -36.71484375 110.11132812 C-38.57040235 107.06291042 -40.72149185 104.36092055 -42.9375 101.5625 C-44.12859375 100.00015625 -44.12859375 100.00015625 -45.34375 98.40625 C-48.44972249 94.38282102 -51.69542436 90.47642008 -54.9375 86.5625 C-57.2934991 83.70984124 -59.64739429 80.85545778 -62 78 C-62.56058105 77.32098633 -63.12116211 76.64197266 -63.69873047 75.94238281 C-65.26819722 74.03249914 -66.82354273 72.11202445 -68.375 70.1875 C-68.84542725 69.619104 -69.31585449 69.05070801 -69.80053711 68.46508789 C-72.35464832 65.26674882 -73 64.25729776 -73 60 C-71.8894043 58.20751953 -71.8894043 58.20751953 -70.32421875 56.3828125 C-69.46183594 55.35994141 -69.46183594 55.35994141 -68.58203125 54.31640625 C-67.95683594 53.59324219 -67.33164063 52.87007812 -66.6875 52.125 C-65.38798554 50.58706655 -64.08982355 49.04798936 -62.79296875 47.5078125 C-62.14634277 46.7437207 -61.4997168 45.97962891 -60.83349609 45.19238281 C-58.31670209 42.18295403 -55.90096131 39.10205472 -53.5 36 C-50.55801585 32.21486283 -47.57800425 28.46861246 -44.5234375 24.7734375 C-43.92490967 24.04890381 -43.32638184 23.32437012 -42.7097168 22.57788086 C-41.49140371 21.11509457 -40.2637248 19.66005589 -39.02661133 18.21313477 C-36.32295061 15.01703075 -33.87242001 12.00511911 -31.98828125 8.25390625 C-25.31098924 -4.04331916 -12.2829103 -1.0868599 0 0 Z " fill="#020202" transform="translate(80,37)"/>
<path d="M0 0 C6.3176211 -0.46243848 12.61799707 -0.72425937 18.953125 -0.6015625 C19.99629883 -0.58432129 21.03947266 -0.56708008 22.11425781 -0.54931641 C25.6837679 0.13015886 27.22993369 1.42847977 29.75 4 C30.84960482 5.99110029 31.93075284 7.99243391 33 10 C35.00534119 12.66615158 37.16394435 15.19872404 39.3125 17.75 C40.44856029 19.13927757 41.58137993 20.53121147 42.7109375 21.92578125 C43.26620117 22.6110791 43.82146484 23.29637695 44.39355469 24.00244141 C46.7706147 26.95823244 49.10576062 29.94591602 51.4375 32.9375 C56.28586029 39.15677596 61.28274316 45.2476158 66.31811523 51.31616211 C66.88344971 51.99815674 67.44878418 52.68015137 68.03125 53.3828125 C68.53205078 53.98496582 69.03285156 54.58711914 69.54882812 55.20751953 C71.08326364 57.10284685 72.54827965 59.04082465 74 61 C72.32198863 64.86223846 69.79665363 67.98683446 67.1875 71.25 C66.70756592 71.85553711 66.22763184 72.46107422 65.7331543 73.08496094 C60.86773001 79.20595341 55.92920016 85.26804932 50.98828125 91.328125 C48.02752064 94.96107324 45.09973701 98.61942886 42.1796875 102.28515625 C40.36069231 104.55075062 38.53123103 106.80673298 36.6953125 109.05859375 C36.1075 109.77982422 35.5196875 110.50105469 34.9140625 111.24414062 C33.74075403 112.68259632 32.5663134 114.12012946 31.390625 115.55664062 C30.85179687 116.21728516 30.31296875 116.87792969 29.7578125 117.55859375 C29.03295654 118.44502563 29.03295654 118.44502563 28.29345703 119.34936523 C27.12180693 120.84455706 26.05369132 122.41946302 25 124 C22.47802734 124.34057617 22.47802734 124.34057617 19.3359375 124.29296875 C18.21445313 124.28330078 17.09296875 124.27363281 15.9375 124.26367188 C14.1740625 124.2259668 14.1740625 124.2259668 12.375 124.1875 C10.59996094 124.16719727 10.59996094 124.16719727 8.7890625 124.14648438 C5.85892461 124.11103916 2.92968541 124.06162769 0 124 C1.5194864 119.96727383 3.29380122 117.13393356 6.0625 113.8125 C8.80920164 110.58717013 8.80920164 110.58717013 11 107 C11.66 107 12.32 107 13 107 C13.2578125 106.27425781 13.515625 105.54851562 13.78125 104.80078125 C15.05242499 101.87952333 16.54016402 99.69127351 18.5 97.1875 C19.1084375 96.39730469 19.716875 95.60710937 20.34375 94.79296875 C20.8903125 94.20128906 21.436875 93.60960937 22 93 C22.66 93 23.32 93 24 93 C24.25910156 92.43152344 24.51820313 91.86304688 24.78515625 91.27734375 C26.11675886 88.78112407 27.65507854 86.75995515 29.4375 84.5625 C30.14003906 83.69367188 30.84257812 82.82484375 31.56640625 81.9296875 C33.32630129 79.81103377 35.10041681 77.71501285 36.90234375 75.6328125 C37.64109741 74.77514282 37.64109741 74.77514282 38.39477539 73.90014648 C39.36311142 72.77976429 40.3373513 71.66445091 41.31811523 70.55493164 C45.14055498 66.26389176 45.14055498 66.26389176 47 61 C45.57956123 58.57987604 44.25656318 56.77631927 42.4375 54.6875 C41.93734375 54.08357422 41.4371875 53.47964844 40.921875 52.85742188 C39.84809971 51.56226329 38.76692791 50.27320838 37.67919922 48.98974609 C34.90312272 45.700269 32.20812301 42.34542381 29.5 39 C28.39716508 37.64711123 27.29430064 36.29424653 26.19140625 34.94140625 C22.78416418 30.74764122 19.44037871 26.50622437 16.11791992 22.24511719 C13.65730338 19.09328575 11.17036795 15.96636472 8.6484375 12.86328125 C8.0922876 12.17693604 7.5361377 11.49059082 6.96313477 10.78344727 C5.88171551 9.45122704 4.79639993 8.12215802 3.70678711 6.79663086 C0 2.2221536 0 2.2221536 0 0 Z " fill="#020202" transform="translate(180,37)"/>
</svg>
